# xmcd
#
# Track frame offsets: 
#        182
#        18072
#        32762
#        49072
#        66587
#        83922
#        103032
#        119620
#        135057
#        155422
#        171250
#        185872
#        202220
#        217725
#        234220
#        251685
#
# Disc length: 3598 seconds
#
# Revision: 0
# Processed by: cddbd v1.5.2PL0 Copyright (c) Steve Scherf et al.
# Submitted via: ExactAudioCopy v0.95b4
#
DISCID=dc0e0c10
DTITLE=Various Artist - Dino's deutsche Hitparade
DYEAR=1987
DGENRE=National Folk
TTITLE0=Nicki - I bin a bayrisches Cowgirl
TTITLE1=Flippers - Malaika
TTITLE2=Thomas and Thomas - Sarah Loreen
TTITLE3=Benny Neymann - Laﬂ mich tr‰umen
TTITLE4=Susan Schubert - Viel zu heiﬂ
TTITLE5=Klaus Hoffmann - Ich gehe in ein anderes Blau
TTITLE6=Uwe Busse - Montego Bay
TTITLE7=Knut Kiesewetter - Sabadubidubidab
TTITLE8=Juliane Werding - Tr‰nen im Ozean
TTITLE9=Andy Borg - Mama Domenica
TTITLE10=Ibo - Das schaffst Du nicht
TTITLE11=Claudia Jung - Amore Amore
TTITLE12=Michael Larsen - Solang es Deine Sehnsucht gibt
TTITLE13=Peter Sebastian - Manchmal denk ich noch an Marien
TTITLE14=Anja Krenz - Hallo Taxi
TTITLE15=Felix de Luxe - Kleines Herz in Not
EXTD=
EXTT0=
EXTT1=
EXTT2=
EXTT3=
EXTT4=
EXTT5=
EXTT6=
EXTT7=
EXTT8=
EXTT9=
EXTT10=
EXTT11=
EXTT12=
EXTT13=
EXTT14=
EXTT15=
PLAYORDER=
